P2
5 5
255
1 3 5 7 9
2 2 1 1 1
3 1 3 1 1
4 1 1 4 1
5 1 1 1 5
